<svg xmlns="http://www.w3.org/2000/svg" viewBox="0 0 580.29 232.72"><defs><style>.cls-1{fill:#231f20;}</style></defs><title>Asset 2</title><g id="Layer_2" data-name="Layer 2"><g id="Layer_1-2" data-name="Layer 1"><path class="cls-1" d="M273,32.86l1-4.09-3.11-2.92-8,4.48-5.45-1.94-3.11-9.15-3.9.4.39,4.46-1,1L247.08,21l.77-3.69-1.75-6.61-6.23-5.44-4.48.19L231.89,0l-3.32,2.14,4.68,5.05v2L246.1,28.39,245.52,35l-2,6.8-5.26,4.08.2,2.92,7.8,3.69L248.25,56l-4.49,8.74,1,2.14,3.11-.19,1.37,1.75,3.9-2.14,6-9.92,3.51-8-1.16-1.75,1.74-4.08,3.7-.2.39,2.14L270.26,43l-.39-4.28,2.33-1.36ZM192.53,11.28v31.3l9.74,9.72h16.36l9.74-9.72V11.28l-9.74-9.73H202.27Zm15,7.77c0-2.53,1-4.09,2.92-4.09s2.92,1.56,2.92,4.09V34.8c0,2.52-1,4.08-2.92,4.08s-2.92-1.56-2.92-4.08Zm8.77,95.86,2.72-.78V111.4l3.12-7.38,2.73-8.36,3.9-2.92,4.09.78,1.75-.58.59-2-2.34-2.92.58-1.55,3.9-4.86.58-3.31,2.15-1.16,2.72-5.83-.59-1.56.4-2.14-.4-.78.4-2.33-2.93-1.36L235,66.5l-.2-.39.4-2.34L233.83,63l-1.16.4-.2-.59.58-1.36.59-1-.59-1.17-5.25,4.09-2.35,8.35-3.31,2-1.75,8-14,13.6-4.67,1.37-6.43,9.14L191,115.69l2.54,3.3,4.87-1.17,1.16,1.75h2.73l.2,1.76,4.87.19L212,119Zm67.4-4.48V79.13L274,69.41H257.6l-9.74,9.72v31.3l9.74,9.72H274Zm-15-7.77c0,2.53-1,4.08-2.92,4.08s-2.92-1.55-2.92-4.08V86.91c0-2.53,1-4.09,2.92-4.09s2.92,1.56,2.92,4.09Zm-69,19.41-2.05.56.62,2.71-3.09,4.21,1.11.65,6.63-1.7,1-2.74-.83-.81ZM11.48,120.24H37.94V1.55H24.13l-8.95,9H0V33.85H11.48ZM84.64,94.38c0,2.78-1.79,4.65-4.12,4.65H78.65c-2.33,0-4.12-1.87-4.12-4.65v-67c0-2.78,1.79-4.65,4.12-4.65h1.87c2.33,0,4.12,1.87,4.12,4.65ZM64.79,1.55,48.06,18.29v85.22l16.73,16.73H94.36l16.73-16.73V18.29L94.37,1.55Zm82.89,25.86c0-2.78,1.79-4.65,4.12-4.65h1.87c2.34,0,4.13,1.87,4.13,4.65v67c0,2.78-1.79,4.65-4.13,4.65H151.8c-2.33,0-4.12-1.87-4.12-4.65Zm19.84,92.83,16.73-16.73V18.29L167.52,1.55H138L121.22,18.28V103.5L138,120.23h29.57ZM350,52.7a4,4,0,0,1-4.12,4.3H340.5V22.76h5.41a3.94,3.94,0,0,1,4.12,4.3ZM314,1.55V120.24H340.5v-42h19.42l16.54-16.54V18.09L359.92,1.55Zm70.71,0v102l16.73,16.73h29.57l16.73-16.73V1.55H421.32V94.38c0,2.78-1.79,4.65-4.12,4.65h-1.87c-2.34,0-4.12-1.87-4.12-4.65V1.55ZM493.9,47.84a4,4,0,0,1-4.12,4.3h-5.41V22.76h5.41a3.94,3.94,0,0,1,4.12,4.3Zm26.42-29.75L503.78,1.55H457.9V120.24h26.46V74.71h5.37a3.94,3.94,0,0,1,4.12,4.3v29.75l1.4,11.48h26.46l-1.4-13V74.71L508.63,63l11.68-11.67V18.09Zm10,102.15h49.93V97.48H556.83V71.6h21.51V48.83H556.83V24.32h23.46V1.55H530.36ZM41,176.54H40l-8.82-38.23H11.48v94.41H31.06V192H32l10.68,40.71h18V138.31H41Zm27.78,56.18h39.72V214.61H89.79V194h17.12V175.92H89.79v-19.5h18.67V138.31H68.74Zm142.76-76.3h19.93l-19.78,59.74v16.56h42.84V214.61H235l19.47-59.28v-17h-43Zm49.63,76.3h39.72V214.61H282.18V194H299.3V175.92H282.18v-19.5h18.67V138.31H261.13ZM368,138.31v94.41h37.6V214.61H388.76v-76.3Zm134.47,38.23h-.92l-8.83-38.23H473v94.41h19.58V192h.93l10.68,40.71h18V138.31H502.49Zm49-21.36H556a3.14,3.14,0,0,1,3.28,3.42v53.82a3.14,3.14,0,0,1-3.28,3.42h-4.49V155.18Zm-21,77.54H567l13.31-13.31V151.62L567,138.31H530.43ZM164.68,181.91h-.93l-4.45-43.6H144.1l-4.5,43.6h-.93l-4.83-43.6H114l12,94.41h19.07l5.47-40.85h.93l5.27,40.85h19.17l12-94.41H169.4Zm165.09,18.63,3.7-30.81h.93l3.77,30.81Zm-9-62.23-15,94.41h20.15l1.83-15.22h12.5l1.86,15.22H363l-15-94.41Zm113.68,62.23,3.69-30.81h.93l3.77,30.81Zm-9-62.23-15,94.41h20.15l1.82-15.22h12.5l1.86,15.22h20.92l-15-94.41Z"/></g></g></svg>